<mxfile host="app.diagrams.net" modified="2023-05-21T14:13:13.291Z" agent="Mozilla/5.0 (X11; Ubuntu; Linux x86_64; rv:109.0) Gecko/20100101 Firefox/113.0" etag="E6V6sF_Gm0dqu6QFJ7Sy" version="21.2.9" type="github">
  <diagram id="VtyyNek00AkpTQ-7k_vY" name="Page-1">
    <mxGraphModel dx="1360" dy="915" grid="1" gridSize="10" guides="1" tooltips="1" connect="1" arrows="1" fold="1" page="1" pageScale="1" pageWidth="827" pageHeight="1169" math="0" shadow="0">
      <root>
        <mxCell id="0" />
        <mxCell id="1" parent="0" />
        <mxCell id="IuGv-hyC2cpdqg-ByweQ-4" style="edgeStyle=orthogonalEdgeStyle;rounded=0;orthogonalLoop=1;jettySize=auto;html=1;exitX=1;exitY=0.5;exitDx=0;exitDy=0;entryX=0.007;entryY=0.214;entryDx=0;entryDy=0;entryPerimeter=0;" edge="1" parent="1" source="C-CEOfuoWfbnzQl0S0QP-4">
          <mxGeometry relative="1" as="geometry">
            <mxPoint x="360.98" y="144.98000000000002" as="targetPoint" />
          </mxGeometry>
        </mxCell>
        <mxCell id="C-CEOfuoWfbnzQl0S0QP-4" value="system.json" style="swimlane;fontStyle=0;childLayout=stackLayout;horizontal=1;startSize=30;horizontalStack=0;resizeParent=1;resizeParentMax=0;resizeLast=0;collapsible=1;marginBottom=0;whiteSpace=wrap;html=1;" parent="1" vertex="1" collapsed="1">
          <mxGeometry x="219" y="130" width="100" height="30" as="geometry">
            <mxRectangle x="40" y="335" width="140" height="60" as="alternateBounds" />
          </mxGeometry>
        </mxCell>
        <mxCell id="C-CEOfuoWfbnzQl0S0QP-13" value="" style="endArrow=classic;html=1;rounded=0;" parent="1" edge="1">
          <mxGeometry width="50" height="50" relative="1" as="geometry">
            <mxPoint x="181" y="439" as="sourcePoint" />
            <mxPoint x="520" y="439" as="targetPoint" />
          </mxGeometry>
        </mxCell>
        <mxCell id="C-CEOfuoWfbnzQl0S0QP-15" value="" style="endArrow=classic;html=1;rounded=0;" parent="1" edge="1">
          <mxGeometry width="50" height="50" relative="1" as="geometry">
            <mxPoint x="200" y="457" as="sourcePoint" />
            <mxPoint x="200" y="240" as="targetPoint" />
          </mxGeometry>
        </mxCell>
        <mxCell id="C-CEOfuoWfbnzQl0S0QP-16" value="" style="endArrow=none;html=1;curved=1;fillColor=#f8cecc;strokeColor=#b85450;" parent="1" edge="1">
          <mxGeometry width="50" height="50" relative="1" as="geometry">
            <mxPoint x="200" y="440" as="sourcePoint" />
            <mxPoint x="520" y="280" as="targetPoint" />
            <Array as="points">
              <mxPoint x="260" y="260" />
              <mxPoint x="370" y="280" />
            </Array>
          </mxGeometry>
        </mxCell>
        <mxCell id="C-CEOfuoWfbnzQl0S0QP-17" value="" style="endArrow=none;html=1;curved=1;fillColor=#dae8fc;strokeColor=#6c8ebf;" parent="1" edge="1">
          <mxGeometry width="50" height="50" relative="1" as="geometry">
            <mxPoint x="180" y="427" as="sourcePoint" />
            <mxPoint x="200" y="427" as="targetPoint" />
          </mxGeometry>
        </mxCell>
        <mxCell id="C-CEOfuoWfbnzQl0S0QP-18" value="" style="endArrow=none;html=1;curved=1;fillColor=#dae8fc;strokeColor=#0056d6;" parent="1" edge="1">
          <mxGeometry width="50" height="50" relative="1" as="geometry">
            <mxPoint x="200" y="430" as="sourcePoint" />
            <mxPoint x="200" y="320" as="targetPoint" />
          </mxGeometry>
        </mxCell>
        <mxCell id="C-CEOfuoWfbnzQl0S0QP-19" value="" style="endArrow=none;html=1;curved=1;fillColor=#dae8fc;strokeColor=#0056d6;" parent="1" edge="1">
          <mxGeometry width="50" height="50" relative="1" as="geometry">
            <mxPoint x="220" y="320" as="sourcePoint" />
            <mxPoint x="200" y="320" as="targetPoint" />
          </mxGeometry>
        </mxCell>
        <mxCell id="C-CEOfuoWfbnzQl0S0QP-21" value="" style="endArrow=none;html=1;curved=1;fillColor=#dae8fc;strokeColor=#0056d6;" parent="1" edge="1">
          <mxGeometry x="0.4545" y="-10" width="50" height="50" relative="1" as="geometry">
            <mxPoint x="220" y="334" as="sourcePoint" />
            <mxPoint x="220" y="320" as="targetPoint" />
            <mxPoint as="offset" />
          </mxGeometry>
        </mxCell>
        <mxCell id="C-CEOfuoWfbnzQl0S0QP-22" value="" style="endArrow=none;html=1;curved=1;fillColor=#dae8fc;strokeColor=#0056d6;" parent="1" edge="1">
          <mxGeometry width="50" height="50" relative="1" as="geometry">
            <mxPoint x="240" y="334" as="sourcePoint" />
            <mxPoint x="220" y="334" as="targetPoint" />
          </mxGeometry>
        </mxCell>
        <mxCell id="C-CEOfuoWfbnzQl0S0QP-23" value="" style="endArrow=none;html=1;curved=1;fillColor=#dae8fc;strokeColor=#0056d6;" parent="1" edge="1">
          <mxGeometry width="50" height="50" relative="1" as="geometry">
            <mxPoint x="240" y="350" as="sourcePoint" />
            <mxPoint x="240" y="334" as="targetPoint" />
          </mxGeometry>
        </mxCell>
        <mxCell id="C-CEOfuoWfbnzQl0S0QP-24" value="" style="endArrow=none;html=1;curved=1;fillColor=#dae8fc;strokeColor=#0056d6;" parent="1" edge="1">
          <mxGeometry width="50" height="50" relative="1" as="geometry">
            <mxPoint x="260" y="350" as="sourcePoint" />
            <mxPoint x="240" y="350" as="targetPoint" />
          </mxGeometry>
        </mxCell>
        <mxCell id="C-CEOfuoWfbnzQl0S0QP-25" value="" style="endArrow=none;html=1;curved=1;fillColor=#dae8fc;strokeColor=#0056d6;" parent="1" edge="1">
          <mxGeometry width="50" height="50" relative="1" as="geometry">
            <mxPoint x="280" y="390" as="sourcePoint" />
            <mxPoint x="280" y="370" as="targetPoint" />
          </mxGeometry>
        </mxCell>
        <mxCell id="C-CEOfuoWfbnzQl0S0QP-26" value="" style="endArrow=none;html=1;curved=1;fillColor=#dae8fc;strokeColor=#0056d6;" parent="1" edge="1">
          <mxGeometry width="50" height="50" relative="1" as="geometry">
            <mxPoint x="520" y="410" as="sourcePoint" />
            <mxPoint x="300" y="410" as="targetPoint" />
          </mxGeometry>
        </mxCell>
        <mxCell id="C-CEOfuoWfbnzQl0S0QP-27" value="" style="endArrow=none;html=1;curved=1;fillColor=#dae8fc;strokeColor=#0056d6;" parent="1" edge="1">
          <mxGeometry width="50" height="50" relative="1" as="geometry">
            <mxPoint x="260" y="370" as="sourcePoint" />
            <mxPoint x="260" y="350" as="targetPoint" />
          </mxGeometry>
        </mxCell>
        <mxCell id="C-CEOfuoWfbnzQl0S0QP-28" value="" style="endArrow=none;html=1;curved=1;fillColor=#dae8fc;strokeColor=#0056d6;" parent="1" edge="1">
          <mxGeometry width="50" height="50" relative="1" as="geometry">
            <mxPoint x="280" y="370" as="sourcePoint" />
            <mxPoint x="260" y="370" as="targetPoint" />
          </mxGeometry>
        </mxCell>
        <mxCell id="C-CEOfuoWfbnzQl0S0QP-29" value="" style="endArrow=none;html=1;curved=1;fillColor=#dae8fc;strokeColor=#0056d6;" parent="1" edge="1">
          <mxGeometry width="50" height="50" relative="1" as="geometry">
            <mxPoint x="300" y="390" as="sourcePoint" />
            <mxPoint x="280" y="390" as="targetPoint" />
          </mxGeometry>
        </mxCell>
        <mxCell id="C-CEOfuoWfbnzQl0S0QP-30" value="" style="endArrow=none;html=1;curved=1;fillColor=#dae8fc;strokeColor=#0056d6;" parent="1" edge="1">
          <mxGeometry width="50" height="50" relative="1" as="geometry">
            <mxPoint x="300" y="410" as="sourcePoint" />
            <mxPoint x="300" y="390" as="targetPoint" />
          </mxGeometry>
        </mxCell>
        <mxCell id="C-CEOfuoWfbnzQl0S0QP-31" value="t" style="text;html=1;strokeColor=none;fillColor=none;align=center;verticalAlign=middle;whiteSpace=wrap;rounded=0;" parent="1" vertex="1">
          <mxGeometry x="498" y="434" width="60" height="30" as="geometry" />
        </mxCell>
        <mxCell id="C-CEOfuoWfbnzQl0S0QP-32" value="" style="endArrow=none;html=1;strokeColor=#82b366;curved=1;fillColor=#d5e8d4;" parent="1" edge="1">
          <mxGeometry width="50" height="50" relative="1" as="geometry">
            <mxPoint x="200" y="280" as="sourcePoint" />
            <mxPoint x="520" y="280" as="targetPoint" />
          </mxGeometry>
        </mxCell>
        <mxCell id="C-CEOfuoWfbnzQl0S0QP-37" value="&lt;i&gt;&lt;font style=&quot;font-size: 14px;&quot;&gt;Simulate&lt;/font&gt;&lt;/i&gt;" style="text;html=1;strokeColor=none;fillColor=none;align=center;verticalAlign=middle;whiteSpace=wrap;rounded=0;" parent="1" vertex="1">
          <mxGeometry x="360" y="226" width="76" height="30" as="geometry" />
        </mxCell>
        <mxCell id="C-CEOfuoWfbnzQl0S0QP-38" value="&lt;i&gt;&lt;font style=&quot;font-size: 14px;&quot;&gt;Serialize&lt;/font&gt;&lt;/i&gt;" style="text;html=1;strokeColor=none;fillColor=none;align=center;verticalAlign=middle;whiteSpace=wrap;rounded=0;" parent="1" vertex="1">
          <mxGeometry x="360" y="460" width="76" height="30" as="geometry" />
        </mxCell>
        <mxCell id="IuGv-hyC2cpdqg-ByweQ-1" value="" style="endArrow=classic;html=1;rounded=0;strokeWidth=3;" edge="1" parent="1">
          <mxGeometry width="50" height="50" relative="1" as="geometry">
            <mxPoint x="340" y="220" as="sourcePoint" />
            <mxPoint x="340" y="260" as="targetPoint" />
          </mxGeometry>
        </mxCell>
        <mxCell id="IuGv-hyC2cpdqg-ByweQ-2" value="" style="group" vertex="1" connectable="0" parent="1">
          <mxGeometry x="456" y="290" width="98" height="70" as="geometry" />
        </mxCell>
        <mxCell id="C-CEOfuoWfbnzQl0S0QP-43" value="" style="ellipse;whiteSpace=wrap;html=1;aspect=fixed;fontSize=14;fillColor=#f8cecc;strokeColor=#b85450;" parent="IuGv-hyC2cpdqg-ByweQ-2" vertex="1">
          <mxGeometry y="10" width="10" height="10" as="geometry" />
        </mxCell>
        <mxCell id="C-CEOfuoWfbnzQl0S0QP-44" value="" style="ellipse;whiteSpace=wrap;html=1;aspect=fixed;fontSize=14;fillColor=#d5e8d4;strokeColor=#82b366;" parent="IuGv-hyC2cpdqg-ByweQ-2" vertex="1">
          <mxGeometry y="30" width="10" height="10" as="geometry" />
        </mxCell>
        <mxCell id="C-CEOfuoWfbnzQl0S0QP-45" value="" style="ellipse;whiteSpace=wrap;html=1;aspect=fixed;fontSize=14;fillColor=#dae8fc;strokeColor=#6c8ebf;" parent="IuGv-hyC2cpdqg-ByweQ-2" vertex="1">
          <mxGeometry y="50" width="10" height="10" as="geometry" />
        </mxCell>
        <mxCell id="C-CEOfuoWfbnzQl0S0QP-46" value="y" style="text;html=1;strokeColor=none;fillColor=none;align=center;verticalAlign=middle;whiteSpace=wrap;rounded=0;fontSize=14;" parent="IuGv-hyC2cpdqg-ByweQ-2" vertex="1">
          <mxGeometry width="60" height="30" as="geometry" />
        </mxCell>
        <mxCell id="C-CEOfuoWfbnzQl0S0QP-48" value="ref" style="text;html=1;strokeColor=none;fillColor=none;align=center;verticalAlign=middle;whiteSpace=wrap;rounded=0;fontSize=14;" parent="IuGv-hyC2cpdqg-ByweQ-2" vertex="1">
          <mxGeometry y="20" width="60" height="30" as="geometry" />
        </mxCell>
        <mxCell id="C-CEOfuoWfbnzQl0S0QP-49" value="u" style="text;html=1;strokeColor=none;fillColor=none;align=center;verticalAlign=middle;whiteSpace=wrap;rounded=0;fontSize=14;" parent="IuGv-hyC2cpdqg-ByweQ-2" vertex="1">
          <mxGeometry y="40" width="60" height="30" as="geometry" />
        </mxCell>
        <mxCell id="IuGv-hyC2cpdqg-ByweQ-3" value="y" style="text;html=1;strokeColor=none;fillColor=none;align=center;verticalAlign=middle;whiteSpace=wrap;rounded=0;" vertex="1" parent="1">
          <mxGeometry x="180" y="210" width="60" height="30" as="geometry" />
        </mxCell>
        <mxCell id="IuGv-hyC2cpdqg-ByweQ-8" value="scenario.json" style="swimlane;fontStyle=0;childLayout=stackLayout;horizontal=1;startSize=30;horizontalStack=0;resizeParent=1;resizeParentMax=0;resizeLast=0;collapsible=1;marginBottom=0;whiteSpace=wrap;html=1;" vertex="1" parent="1">
          <mxGeometry x="360" y="120" width="140" height="90" as="geometry" />
        </mxCell>
        <mxCell id="IuGv-hyC2cpdqg-ByweQ-9" value="system.json" style="text;strokeColor=none;fillColor=none;align=left;verticalAlign=middle;spacingLeft=4;spacingRight=4;overflow=hidden;points=[[0,0.5],[1,0.5]];portConstraint=eastwest;rotatable=0;whiteSpace=wrap;html=1;" vertex="1" parent="IuGv-hyC2cpdqg-ByweQ-8">
          <mxGeometry y="30" width="140" height="30" as="geometry" />
        </mxCell>
        <mxCell id="IuGv-hyC2cpdqg-ByweQ-10" value="..." style="text;strokeColor=none;fillColor=none;align=left;verticalAlign=middle;spacingLeft=4;spacingRight=4;overflow=hidden;points=[[0,0.5],[1,0.5]];portConstraint=eastwest;rotatable=0;whiteSpace=wrap;html=1;" vertex="1" parent="IuGv-hyC2cpdqg-ByweQ-8">
          <mxGeometry y="60" width="140" height="30" as="geometry" />
        </mxCell>
        <mxCell id="IuGv-hyC2cpdqg-ByweQ-12" value="" style="endArrow=classic;html=1;rounded=0;strokeWidth=3;" edge="1" parent="1">
          <mxGeometry width="50" height="50" relative="1" as="geometry">
            <mxPoint x="340" y="449" as="sourcePoint" />
            <mxPoint x="340" y="489" as="targetPoint" />
          </mxGeometry>
        </mxCell>
        <mxCell id="IuGv-hyC2cpdqg-ByweQ-14" value="simulation.json" style="swimlane;fontStyle=0;childLayout=stackLayout;horizontal=1;startSize=30;horizontalStack=0;resizeParent=1;resizeParentMax=0;resizeLast=0;collapsible=1;marginBottom=0;whiteSpace=wrap;html=1;" vertex="1" parent="1">
          <mxGeometry x="274" y="500" width="140" height="120" as="geometry" />
        </mxCell>
        <mxCell id="IuGv-hyC2cpdqg-ByweQ-15" value="u = [u&lt;sub&gt;1&lt;/sub&gt;, u&lt;sub&gt;2&lt;/sub&gt;, ..., u&lt;sub&gt;T&lt;/sub&gt;]" style="text;strokeColor=none;fillColor=none;align=left;verticalAlign=middle;spacingLeft=4;spacingRight=4;overflow=hidden;points=[[0,0.5],[1,0.5]];portConstraint=eastwest;rotatable=0;whiteSpace=wrap;html=1;" vertex="1" parent="IuGv-hyC2cpdqg-ByweQ-14">
          <mxGeometry y="30" width="140" height="30" as="geometry" />
        </mxCell>
        <mxCell id="IuGv-hyC2cpdqg-ByweQ-16" value="ref = [r&lt;sub&gt;1&lt;/sub&gt;, r&lt;sub&gt;2&lt;/sub&gt;, ..., r&lt;sub&gt;T&lt;/sub&gt;]" style="text;strokeColor=none;fillColor=none;align=left;verticalAlign=middle;spacingLeft=4;spacingRight=4;overflow=hidden;points=[[0,0.5],[1,0.5]];portConstraint=eastwest;rotatable=0;whiteSpace=wrap;html=1;" vertex="1" parent="IuGv-hyC2cpdqg-ByweQ-14">
          <mxGeometry y="60" width="140" height="30" as="geometry" />
        </mxCell>
        <mxCell id="IuGv-hyC2cpdqg-ByweQ-17" value="y = [y&lt;sub&gt;1&lt;/sub&gt;, y&lt;sub&gt;2&lt;/sub&gt;, ..., y&lt;sub&gt;T&lt;/sub&gt;]" style="text;strokeColor=none;fillColor=none;align=left;verticalAlign=middle;spacingLeft=4;spacingRight=4;overflow=hidden;points=[[0,0.5],[1,0.5]];portConstraint=eastwest;rotatable=0;whiteSpace=wrap;html=1;" vertex="1" parent="IuGv-hyC2cpdqg-ByweQ-14">
          <mxGeometry y="90" width="140" height="30" as="geometry" />
        </mxCell>
      </root>
    </mxGraphModel>
  </diagram>
</mxfile>
